Coordinates
version=1
nRows=27
nColumns=12
inDegrees=yes

Units are S.I. units (second, meters, Newtons, ...)
Angles are in degrees

endheader
time	SC_y	SC_z	SC_x	AC_y	AC_z	AC_x	GH_y	GH_z	GH_yy	EL_x	PS_y
       0.0               -41.8          37.43          65.53          42.78          4.707         -18.94         -44.44          51.08           54.2           13.5          44.36
   0.01908              -41.79          37.43          65.52          42.78          4.707         -18.94         -44.42          51.07          54.19           13.5          44.35
   0.03816              -41.79          37.42          65.52          42.78          4.708         -18.94         -44.41          51.06          54.17           13.5          44.35
   0.05724              -41.79          37.42          65.51          42.78          4.708         -18.93          -44.4          51.06          54.14          13.51          44.35
   0.07632              -41.78          37.41          65.51          42.78          4.708         -18.93         -44.39          51.05          54.12          13.51          44.34
   0.09541              -41.78          37.41           65.5          42.78          4.708         -18.93         -44.37          51.05           54.1          13.51          44.34
    0.1145              -41.77           37.4           65.5          42.78          4.708         -18.93         -44.35          51.04          54.07          13.51          44.34
    0.1336              -41.77           37.4          65.49          42.78          4.708         -18.93         -44.34          51.03          54.04          13.52          44.33
    0.1526              -41.76          37.39          65.48          42.78          4.708         -18.92         -44.32          51.02          54.01          13.52          44.33
    0.1717              -41.75          37.39          65.48          42.79          4.709         -18.92          -44.3          51.02          53.98          13.52          44.32
    0.1908              -41.75          37.38          65.47          42.79          4.709         -18.92         -44.28          51.01          53.95          13.52          44.32
    0.2099              -41.74          37.37          65.46          42.79          4.709         -18.91         -44.26           51.0          53.91          13.53          44.31
     0.229              -41.73          37.36          65.45          42.79          4.709         -18.91         -44.23          50.99          53.87          13.53           44.3
    0.2481              -41.72          37.35          65.44          42.79          4.709          -18.9         -44.21          50.98          53.83          13.54           44.3
    0.2671              -41.71          37.34          65.43          42.79           4.71          -18.9         -44.18          50.96          53.78          13.54          44.29
    0.2862               -41.7          37.33          65.42          42.79           4.71          -18.9         -44.15          50.95          53.73          13.54          44.28
    0.3053              -41.69          37.32          65.41           42.8           4.71         -18.89         -44.11          50.94          53.68          13.55          44.27
    0.3244              -41.68          37.31          65.39           42.8          4.711         -18.88         -44.08          50.92          53.62          13.55          44.26
    0.3435              -41.67           37.3          65.38           42.8          4.711         -18.88         -44.04           50.9          53.55          13.56          44.25
    0.3625              -41.65          37.28          65.36           42.8          4.711         -18.87         -43.99          50.89          53.48          13.57          44.24
    0.3816              -41.64          37.27          65.34          42.81          4.712         -18.86         -43.95          50.86           53.4          13.57          44.23
    0.4007              -41.62          37.25          65.33          42.81          4.712         -18.86         -43.89          50.84          53.32          13.58          44.22
    0.4198               -41.6          37.23           65.3          42.81          4.713         -18.85         -43.83          50.82          53.22          13.59           44.2
    0.4389              -41.58          37.21          65.28          42.82          4.713         -18.84         -43.77          50.79          53.11           13.6          44.18
    0.4579              -41.55          37.18          65.25          42.82          4.714         -18.82          -43.7          50.76           53.0          13.61          44.16
     0.477              -41.53          37.16          65.22          42.82          4.715         -18.81         -43.62          50.72          52.87          13.62          44.14
    0.4961               -41.5          37.13          65.19          42.83          4.715          -18.8         -43.53          50.69          52.72          13.64          44.12
